<svg viewBox="0 0 800 247" xmlns="http://www.w3.org/2000/svg">
<path fill="#fff" d="M0 0h800v247H0V0z"/>
<path fill="#383838" d="M84.02 44.49c9.32.01 18.65.01 27.97 0 .02 3.76.02 7.51 0 11.27-9.32-.01-18.65-.02-27.98 0-.02-3.76-.04-7.51.01-11.27zm238.48.02c9.33-.03 18.66-.01 28-.01v11.25c-9.33 0-18.66-.01-28 0 0-3.74-.01-7.49 0-11.24z"/>
<path fill="#c05318" d="M66.65 68.73c8.3-7.85 20.46-8.99 31.34-8.75 10.85-.22 23.03.87 31.3 8.7 8.38 8.46 9.58 21.11 10.18 32.39.09 18.7.13 37.4-.02 56.09-6.31-.04-12.63-.02-18.94 0-.16-19.16.14-38.32-.15-57.47-.58-7.33-.68-16.31-7.14-21.15-6.08-3.55-13.47-2.72-20.22-2.66-5.59.03-12 2.07-14.35 7.64-3.36 8.05-3.05 16.98-3.13 25.54.21 15.92-.47 31.84-.17 47.76-6.26.67-12.56.17-18.84.34-.05-18.71-.09-37.43.02-56.14.66-11.25 1.79-23.82 10.12-32.29zm242.68-2.37c10.4-7.13 23.67-6.67 35.72-6.16 9.08.78 19.25 2.98 24.99 10.74 5.71 8.01 6 18.25 6.23 27.71-6.08.03-12.16.02-18.24.01-.22-5.93.34-12.44-3.06-17.65-3.14-4.39-9.05-4.85-13.99-5.11-6.15-.14-12.87-.66-18.36 2.65-4.44 3.02-5.75 8.68-6.5 13.68-1.08 9.52-1.02 19.15-.49 28.7.54 6.33 1.27 13.64 6.47 18.02 5.95 4.44 13.94 3.44 20.93 3.26 5.31-.29 12.1-1.37 14.36-6.97 1.93-5.99.74-12.41 1.12-18.58 6.04 0 12.08.01 18.13-.01-.14 9.13 1.18 18.79-2.65 27.39-2.22 5.25-6.98 9.01-12.23 10.94-9.8 3.64-20.43 3.32-30.72 3.2-8.08-.36-16.75-1.68-23.25-6.9-6-4.93-8.56-12.7-9.86-20.09-1.99-12.44-2.1-25.13-1.07-37.66 1.05-10 3.84-20.99 12.47-27.17z"/>
<path fill="#383838" d="M160.98 92.99c7.51-4.49 16.65-4.32 25.11-4.22 7.32.32 15.53.74 21.24 5.95 4.9 4.69 5.76 11.86 5.9 18.29.05 14.75 0 29.5.03 44.25-5.46-.01-10.91-.02-16.36 0 .37-3.13.8-6.26 1.22-9.38-2.26 5.3-7.13 9.38-12.98 9.9-8.24.76-17.04 1.24-24.82-2.09-5.69-2.46-8.65-8.68-8.97-14.61-.29-6.28-.5-13.18 3.18-18.61 4-5.4 11.25-6.32 17.47-6.68 6.07.02 12.49-.7 18.21 1.78 3.15 1.2 4.76 4.32 6.74 6.82-.06-6.18.57-12.5-.9-18.55-1.01-4.07-5.22-6.13-9.13-6.24-4.56-.1-9.49-.73-13.74 1.34-3.06 1.62-3.28 5.31-3.62 8.33-5.39-.04-10.78-.01-16.17-.03-.02-6.14 2.04-12.93 7.59-16.25zm236.58 1.61c6.51-5.35 15.45-5.87 23.52-5.87 8.66.14 18.57 1.75 24.17 9.09 6.1 8.18 5.83 18.95 6.03 28.67-15.36.03-30.71.01-46.07 0 .43 6.11-.36 14.01 5.23 18.07 5.9 2.81 12.92 2.11 19.12.76 4.31-1.06 5.52-5.7 5.56-9.57 5.4 0 10.81-.01 16.21.01-.27 4.15-.19 8.56-2.2 12.33-2.18 4.59-6.98 7.29-11.73 8.51-7.61 1.92-15.55 1.82-23.33 1.54-7.65-.5-16.23-2.83-20.46-9.8-5.51-9.03-4.92-20.11-4.83-30.29.44-8.36 1.98-17.77 8.78-23.45zm83.65 4.28c3.27-4.65 7.77-8.97 13.68-9.69 8.65-1.07 18.63-.66 25.51 5.39 6.28 6.01 7.1 15.3 7.53 23.49.15 8.54.35 17.31-2.16 25.57-1.66 5.7-5.89 10.73-11.54 12.76-6.47 2.36-13.61 2.28-20.34 1.26-5.45-.89-10.09-4.48-12.7-9.29.12 9.04.04 18.08.06 27.12-5.42.02-10.84 0-16.26.01.04-28.58-.03-57.17.03-85.76 5.41.02 10.82-.02 16.23.02 0 3.04 0 6.08-.04 9.12zm215.24-1.38c4.92-6.67 13.76-8.39 21.56-8.7 9.26-.24 19.58.01 27.16 6.1 5.36 4.51 6.6 11.95 6.37 18.6-5.33 0-10.65.01-15.97 0 .09-4.05-.31-9.64-4.96-11.03-5.23-1.38-11.08-1.6-16.22.23-5.51 2.37-6.37 9.1-6.8 14.35-.02 7.41-.89 15.22 1.96 22.27 1.73 4.62 6.96 6.41 11.52 6.31 4.44-.13 9.86.16 13.01-3.58 2.26-2.99 1.95-7 2.24-10.54 5.23-.02 10.46-.01 15.7-.02.2 7.33-.86 15.67-6.61 20.85-7.34 5.99-17.44 6-26.44 5.91-8.11-.19-17.44-1.78-22.55-8.77-5.34-7.66-5.59-17.47-5.69-26.46.19-8.69.54-18.14 5.72-25.52zm-469.67-7.76c5.39 0 10.8.01 16.2 0 .05 8.76-.01 17.51.03 26.27 1.19-.02 2.39-.03 3.59-.05 6.26-8.77 12.58-17.5 18.88-26.24 6.23.06 12.46 0 18.69.05-7.97 10.57-16.01 21.1-24.04 31.63 9.57 11.93 19.15 23.85 28.71 35.8-6.57.1-13.14.04-19.71.04-7.5-10.01-15.03-19.99-22.5-30.01l-3.62.03c-.03 10 .01 20.01-.02 30.01-5.42-.04-10.83-.01-16.25-.01.03-22.51-.03-45.01.04-67.52zm314.97 0c13.07.03 26.14-.03 39.22.03 6.42.16 14.12 1.65 17.37 7.92 2.78 6.05 3.47 14.12-1.04 19.54-2.27 2.78-5.7 4.18-9.03 5.22 4.47.81 8.93 3.01 11.38 6.99 2.97 4.8 2.73 10.81 1.7 16.16-.72 3.55-2.7 7.01-5.97 8.77-4.35 2.57-9.55 2.65-14.44 2.87-13.06.04-26.13-.01-39.19.02-.02-22.51 0-45.01 0-67.52zm74.01.01c5.16-.01 10.33 0 15.5-.01-.02 13.43-.01 26.85 0 40.27-.02 4.46-.9 8.86-1.8 13.21 9.04-17.93 18.43-35.7 27.7-53.51 6.6.08 13.21.02 19.81.02.05 22.51.04 45.03.01 67.54-5.16-.03-10.32-.02-15.47-.01-.03-13.44 0-26.87-.02-40.31.01-4.31.81-8.56 1.69-12.77-9.19 17.69-18.36 35.39-27.57 53.07h-19.85c-.02-22.5-.02-45 0-67.5z"/>
<path fill="#fff" d="M411.18 102.14c5.37-2.05 11.6-1.91 17.05-.23 5.7 2.12 6.79 9.03 6.54 14.36-9.87-.05-19.73 0-29.6-.02.22-5.1.65-11.68 6.01-14.11zm77.24.43c4.9-1.56 10.34-1.47 15.31-.27 5.27 1.51 7.11 7.35 7.55 12.23.7 7.83.99 15.97-1.26 23.59-1.1 4.07-4.94 6.94-9.09 7.23-4.81.43-10.17.77-14.43-1.9-3.61-2.59-4.35-7.36-4.89-11.47-.56-6.69-.68-13.49.46-20.13.62-3.77 2.45-7.96 6.35-9.28zm69.6-.83c7 .24 14.06-.49 21.02.41 5.21.91 6.54 7.94 4 11.9-1.81 2.53-5.19 2.81-8.03 2.93-5.67.08-11.34-.01-17 .02 0-5.09-.03-10.18.01-15.26zm-383.61 25.85c5.44-.98 11.19-.94 16.59.33 8.16 1.9 7.99 15.93-.01 17.96-5.43 1.53-11.28 1.46-16.81.55-8.97-1.5-8.71-17.43.23-18.84zm383.61.64c7.18.25 14.42-.45 21.58.42 6.47.87 7.98 9.84 4.12 14.2-2.33 2.14-5.68 2.38-8.68 2.41-5.68.01-11.35-.04-17.02.01-.04-5.68-.01-11.36 0-17.04z"/>
</svg>
